<svg width="446" height="483" viewBox="0 0 446 483" fill="none" xmlns="http://www.w3.org/2000/svg">
<path d="M433.5 242.25C433.5 126.132 339.368 32 223.25 32C107.132 32 13 126.132 13 242.25C13 358.368 107.132 452.5 223.25 452.5C339.368 452.5 433.5 358.368 433.5 242.25Z" stroke="#FFC79E" stroke-width="18"/>
<path d="M231.635 50.691C231.635 46.4088 226.733 44 222.723 44C218.712 44 213.365 46.4088 213.365 50.691V105.557L200.443 92.6213C198.512 91.4318 193.759 90.1234 190.194 94.4056C186.629 98.6879 188.708 106.598 190.194 110.018C195.095 115.668 206.592 127.771 213.365 130.983V156.409C192.719 146.744 159.18 115.638 190.194 68.5337C191.233 63.1809 190.105 53.6351 177.271 58.2742C164.438 62.9133 160.635 97.3794 160.338 114.033C156.625 109.423 149.02 95.387 148.307 76.1169C145.633 71.8049 138.504 65.7681 131.374 76.1169C127.364 110.91 151.872 132.767 181.727 156.409C161.23 151.502 119.699 134.462 117.56 105.557C117.56 99.3124 104.12 92.837 100.182 104.665C95.7258 118.047 111.768 138.864 122.462 147.042L82.8033 148.38C79.6841 148.528 73.6238 150.789 74.3368 158.639C75.0498 166.49 80.2782 168.453 82.8033 168.453L140.732 163.992L101.073 194.325C98.845 196.258 95.904 201.551 101.964 207.261C108.024 212.97 115.481 209.64 118.452 207.261C126.77 195.812 147.683 172.735 164.794 172.021C166.874 171.724 172.28 172.289 177.271 176.928C169.547 180.051 152.496 190.221 146.079 205.922C144.594 208.599 142.96 215.201 148.307 220.197C153.654 225.193 163.012 216.628 163.012 216.628C163.012 216.628 165.076 210.731 167.022 207.261C168.677 204.311 169.885 202.821 171.924 200.124C176.679 193.834 185.738 185.403 185.738 185.403C192.867 189.269 207.661 206.993 209.8 246.961C212.177 271.048 198.393 321.9 124.244 332.606H81.4665C78.6443 333.2 73 335.907 73 341.973C73 348.04 78.6443 351.043 81.4665 351.787H120.68C138.058 350.894 164.527 346.434 190.194 323.238C185.144 330.821 172.637 347.683 163.012 354.463C153.387 361.243 125.73 377.807 113.104 385.242C110.579 387.026 107.044 392.111 113.104 398.178C119.165 404.244 125.136 402.787 127.364 401.3L175.043 366.953C198.66 347.326 208.463 329.929 210.692 315.209C210.692 315.209 211.137 313.425 212.474 313.871C213.811 314.317 213.811 316.101 213.811 316.101C213.811 318.242 212.771 332.16 212.474 338.851C212.028 347.326 204.453 365.169 191.531 376.766L160.338 404.869C158.556 406.058 156.061 410.132 160.338 416.912C164.616 423.693 173.409 421.224 177.271 419.143C182.173 416.02 180.39 413.79 190.194 402.638C198.036 393.717 206.235 384.647 209.8 381.227L212.92 378.104V432.525C213.217 435.052 215.148 441 222.723 441C230.298 441 231.783 435.052 232.08 432.525V378.104L235.2 381.227C238.765 384.647 246.964 393.717 254.806 402.638C264.61 413.79 262.827 416.02 267.729 419.143C271.591 421.224 280.384 423.693 284.662 416.912C288.939 410.132 286.444 406.058 284.662 404.869L253.469 376.766C240.547 365.169 232.972 347.326 232.526 338.851C232.229 332.16 231.189 318.242 231.189 316.101C231.189 316.101 231.189 314.317 232.526 313.871C233.863 313.425 234.309 315.209 234.309 315.209C236.537 329.929 246.34 347.326 269.957 366.953L317.636 401.3C319.864 402.787 325.835 404.244 331.896 398.178C337.956 392.111 334.421 387.026 331.896 385.242C319.27 377.807 291.613 361.243 281.988 354.463C272.363 347.683 259.856 330.821 254.806 323.238C280.473 346.434 306.942 350.894 324.32 351.787H363.534C366.356 351.043 372 348.04 372 341.973C372 335.907 366.356 333.2 363.534 332.606H320.756C246.607 321.9 232.823 271.048 235.2 246.961C237.339 206.993 252.133 189.269 259.262 185.403C259.262 185.403 268.321 193.834 273.076 200.124C275.115 202.821 276.323 204.311 277.978 207.261C279.924 210.731 281.988 216.628 281.988 216.628C281.988 216.628 291.346 225.193 296.693 220.197C302.04 215.201 300.406 208.599 298.921 205.922C292.504 190.221 275.453 180.051 267.729 176.928C272.72 172.289 278.126 171.724 280.206 172.021C297.317 172.735 318.23 195.812 326.548 207.261C329.519 209.64 336.976 212.97 343.036 207.261C349.096 201.551 346.155 196.258 343.927 194.325L304.268 163.992L362.197 168.453C364.722 168.453 369.95 166.49 370.663 158.639C371.376 150.789 365.316 148.528 362.197 148.38L322.538 147.042C333.232 138.864 349.274 118.047 344.818 104.665C340.88 92.837 327.44 99.3124 327.44 105.557C325.301 134.462 283.77 151.502 263.273 156.409C293.128 132.767 317.636 110.91 313.626 76.1169C306.496 65.7681 299.367 71.8049 296.693 76.1169C295.98 95.387 288.375 109.423 284.662 114.033C284.365 97.3794 280.562 62.9133 267.729 58.2742C254.895 53.6351 253.767 63.1809 254.806 68.5337C285.82 115.638 252.281 146.744 231.635 156.409V130.983C238.408 127.771 249.905 115.668 254.806 110.018C256.292 106.598 258.371 98.6879 254.806 94.4056C251.241 90.1234 246.488 91.4318 244.557 92.6213L231.635 105.557V50.691Z" fill="#FFC79E"/>
</svg>
